<svg width="100" height="71" viewBox="0 0 100 71" fill="none" xmlns="http://www.w3.org/2000/svg">
<g filter="url(#filter0_d)">
<path d="M16.8472 52.0978C16.5423 51.6726 16.1997 51.3488 15.8193 51.1264C15.4272 50.8918 15.0332 50.7711 14.6373 50.7645C14.2533 50.758 13.8854 50.8659 13.5337 51.088C13.1699 51.3099 12.8462 51.6465 12.5626 52.0978C11.9951 53.0124 11.7021 54.0217 11.6836 55.1255C11.6679 56.0614 11.8511 56.9466 12.2331 57.7811C13.6081 58.0922 15.6829 58.5351 18.4577 59.1098L18.4937 59.1104C18.4595 57.5736 18.3377 56.2454 18.1285 55.1257C17.9195 53.9941 17.4924 52.9847 16.8472 52.0978ZM7.20872 53.5921C6.42641 53.723 6.02851 54.1904 6.01501 54.9943C6.00856 55.3782 6.09109 55.8237 6.2626 56.3306C7.19464 56.5743 8.59311 56.9159 10.458 57.3552C10.2455 56.4275 9.8759 55.5692 9.34907 54.7803C8.82245 53.9793 8.21119 53.573 7.51528 53.5613C7.45529 53.5603 7.35311 53.5706 7.20872 53.5921ZM11.1538 51.3001C11.5024 50.5498 11.9503 49.9633 12.4975 49.5404C13.0449 49.1055 13.6425 48.8935 14.2904 48.9044C14.9143 48.9149 15.5228 49.1291 16.1159 49.5471C17.5276 50.531 18.5054 51.9816 19.0492 53.899C19.5933 55.8044 19.8465 57.879 19.8088 60.1226C19.7988 60.7226 19.7712 61.2922 19.7261 61.8315C19.7095 62.1073 19.6232 62.2438 19.4672 62.2412C19.2992 62.2384 19.1037 62.0911 18.8806 61.7993C18.6576 61.4955 18.5359 61.2414 18.5153 61.0371C14.8075 60.2787 11.0535 59.4115 7.2534 58.4356C7.28698 58.5802 7.30235 58.7364 7.29953 58.9044C7.29631 59.0964 7.26959 59.258 7.21938 59.3891C7.16937 59.5083 7.09038 59.567 6.98239 59.5652C6.85041 59.563 6.69025 59.4523 6.5019 59.2331C6.25477 58.9409 5.99156 58.5344 5.71227 58.0136C5.67627 58.013 5.62248 58.0001 5.55089 57.9749C5.33593 57.9113 5.15298 57.7282 5.00204 57.4256C4.8513 57.1111 4.77835 56.8098 4.78319 56.5218C4.78701 56.2939 4.83743 56.1507 4.93442 56.0923C4.76553 55.4294 4.68531 54.846 4.69378 54.342C4.71574 53.0342 5.25787 52.1972 6.32017 51.831C6.60994 51.7278 6.89281 51.6786 7.16877 51.6832C7.78068 51.6935 8.36477 51.9313 8.92104 52.3967C9.4775 52.8501 9.98346 53.4527 10.4389 54.2045C10.4924 53.1612 10.7307 52.1931 11.1538 51.3001Z" fill="white"/>
<path d="M95.124 5.45321C95.1852 5.45143 95.269 5.45959 95.3755 5.47768C95.5766 5.51185 95.7174 5.57839 95.798 5.67728C95.8924 5.76636 95.9296 5.87004 95.9095 5.98835C95.8793 6.16581 95.7545 6.32718 95.5351 6.47248C95.3177 6.60594 95.0689 6.67322 94.7887 6.6743L94.7027 6.75097C94.5781 6.83935 94.4227 7.00162 94.2365 7.23777C93.9414 7.61364 93.6171 8.16105 93.2637 8.88001C92.787 9.89449 92.2825 11.2877 91.7502 13.0595C91.4072 14.2185 91.0529 15.5154 90.6874 16.9505C90.6615 17.0313 90.6335 17.1604 90.6033 17.3379C90.5153 17.7124 90.4266 18.0199 90.337 18.2603C90.2495 18.4889 90.1266 18.6749 89.9683 18.8184C89.8417 18.9186 89.6314 19.0107 89.3371 19.0946C89.0568 19.1687 88.8042 19.1866 88.5794 19.1484C88.2837 19.0982 88.1263 18.9497 88.1074 18.7031C87.9958 17.7834 87.8994 16.4524 87.8181 14.7102C87.8032 14.4399 87.7798 14.0403 87.7479 13.5115C87.7161 12.9827 87.685 12.5209 87.6546 12.1263L87.4861 10.2171C87.2885 10.9503 87.0721 11.6865 86.837 12.4255C86.4165 13.7539 86.0165 14.8544 85.6369 15.7272C85.2692 16.6019 84.7815 17.3589 84.1738 17.9982C84.0095 18.1772 83.798 18.3117 83.5393 18.4016C83.2944 18.4817 83.0537 18.5017 82.8171 18.4614C82.6514 18.4333 82.5027 18.3776 82.3708 18.2943C82.2409 18.1992 82.186 18.0925 82.2061 17.9742C82.2201 17.8914 82.2558 17.8244 82.3132 17.7733C82.8836 17.0669 83.3517 16.2822 83.7174 15.4193C84.097 14.5465 84.495 13.4578 84.9114 12.1531C85.5232 10.2 85.9728 8.37759 86.2603 6.68584C86.3769 5.99968 86.4525 5.48304 86.4871 5.13594C86.5135 4.90915 86.6827 4.73706 86.9948 4.61968C87.3089 4.49047 87.6197 4.45199 87.9273 4.50426C88.1639 4.54446 88.3313 4.63377 88.4295 4.77217C88.6554 5.09051 88.8101 5.43328 88.8938 5.80048C88.9913 6.15786 89.0962 6.6869 89.2084 7.3876C89.3594 8.28965 89.513 9.64249 89.6691 11.4461C89.7016 11.7559 89.7386 12.2187 89.7801 12.8343C89.8897 12.4756 90.068 11.9278 90.315 11.1907C90.6972 10.0871 91.0632 9.15122 91.4128 8.38294C91.7743 7.61666 92.2677 6.93366 92.893 6.33393C93.5203 5.72237 94.264 5.4288 95.124 5.45321Z" fill="white"/>
<path d="M75.3568 10.8995C76.2027 10.833 76.979 10.8221 77.6856 10.867L77.7716 6.66998C77.4515 7.1667 76.9919 7.96719 76.3927 9.07146C75.876 10.0126 75.5308 10.622 75.3568 10.8995ZM80.3198 17.6715C80.3563 17.8542 80.2974 18.0248 80.1431 18.1833C79.9895 18.3299 79.7839 18.4431 79.5263 18.5229C79.28 18.6155 79.049 18.655 78.8334 18.6413C78.4861 18.6192 78.2954 18.4989 78.2611 18.2803C77.9387 16.5404 77.7506 14.4843 77.6967 12.1122C76.6196 12.0318 75.5413 12.0655 74.4618 12.2135C73.2167 14.0222 72.059 15.6862 70.9886 17.2055C70.8822 17.3671 70.6754 17.4982 70.3684 17.599C70.0502 17.687 69.7594 17.7227 69.4959 17.7059C69.1606 17.6847 68.9986 17.5842 69.01 17.4046C69.0146 17.3327 69.0435 17.2564 69.0967 17.1756C70.1612 15.5598 71.1447 14.0831 72.0472 12.7456L71.735 12.834C71.5388 12.8937 71.3629 12.9186 71.2072 12.9087C71.0515 12.8988 70.9341 12.8553 70.8548 12.7781C70.7635 12.7002 70.7213 12.6073 70.7282 12.4995C70.7358 12.3798 70.8033 12.2638 70.9306 12.1517C71.0468 12.0268 71.2157 11.9233 71.4373 11.8411C72.0161 11.6254 72.5317 11.4597 72.9839 11.3441C73.7013 10.2714 74.4701 9.05164 75.2903 7.68485C76.2312 6.12131 77.018 4.9027 77.6506 4.02901C77.6896 3.98339 77.7405 3.93853 77.8035 3.89442L77.7912 3.80347C77.8049 3.5879 77.9667 3.40579 78.2768 3.25713C78.5996 3.09725 78.9166 3.02719 79.228 3.04696C79.6112 3.07128 79.7997 3.22753 79.7934 3.51572L79.7709 4.72272C79.6955 7.61575 79.679 10.0556 79.7212 12.0423C79.7762 14.0177 79.9757 15.8941 80.3198 17.6715Z" fill="white"/>
<path d="M66.9307 3.21094C67.0144 3.13853 67.1401 3.07792 67.3078 3.02911C67.4876 2.98024 67.6675 2.95536 67.8475 2.95449C68.0275 2.95362 68.1776 2.97689 68.2978 3.0243C68.4181 3.07172 68.4784 3.14343 68.4789 3.23943C68.4793 3.32343 68.4198 3.42572 68.3004 3.5463L61.2419 10.4746L61.0089 10.6738C62.7086 9.78951 64.0265 9.34511 64.9624 9.34057C65.8144 9.33643 66.3442 9.69987 66.5518 10.4309C66.6131 10.7066 66.6443 10.9524 66.6453 11.1684C66.6469 11.4804 66.6124 11.7986 66.542 12.1229C66.4715 12.4353 66.3713 12.8018 66.2413 13.2224C66.0879 13.7632 65.9819 14.1717 65.9232 14.448C65.8645 14.7123 65.8359 15.0004 65.8374 15.3124C65.838 15.4204 65.8507 15.5703 65.8756 15.7622C66.0557 15.7733 66.1999 15.8086 66.3081 15.8681C66.4284 15.9275 66.4888 16.0052 66.4893 16.1012C66.4899 16.2332 66.3767 16.3958 66.1496 16.5889L65.7015 16.9691C65.6059 17.0535 65.4503 17.1383 65.2347 17.2233C65.0191 17.3084 64.8153 17.3514 64.6233 17.3523C64.3473 17.3536 64.1668 17.2465 64.0818 17.0309C63.948 16.6716 63.8801 16.2699 63.8779 15.8259C63.8762 15.4779 63.9045 15.1298 63.9628 14.7815C64.0331 14.4211 64.1329 13.9766 64.2624 13.448C64.4275 12.8472 64.539 12.3307 64.5969 11.8984C64.6313 11.5742 64.6484 11.3941 64.6482 11.3581C64.6472 11.1541 64.6045 10.9983 64.52 10.8907C64.4474 10.7711 64.3091 10.7118 64.1051 10.7127C63.8651 10.7139 63.5775 10.7933 63.2422 10.9509C62.919 11.1085 62.7215 11.2055 62.6496 11.2418C62.1347 11.4603 61.4703 11.7875 60.6564 12.2235C60.3635 13.6889 60.0582 15.0704 59.7405 16.368C59.6935 16.5842 59.5084 16.7711 59.1852 16.9287C58.862 17.0863 58.5563 17.1658 58.2684 17.1671C58.1004 17.168 57.9682 17.1386 57.8719 17.0791C57.7876 17.0075 57.7631 16.9056 57.7984 16.7734C57.8454 16.5692 57.8748 16.4311 57.8864 16.359C57.9569 16.0466 58.0744 15.5241 58.2388 14.7913C58.4032 14.0465 58.544 13.3858 58.6612 12.8092C58.4568 12.7262 58.3542 12.6067 58.3535 12.4507C58.3526 12.2707 58.5137 12.0839 58.8367 11.8903C59.4452 8.68334 59.7431 5.78386 59.7305 3.19189C59.7296 2.98789 59.8787 2.80116 60.1778 2.63171C60.489 2.4502 60.7945 2.35871 61.0945 2.35726C61.2625 2.35644 61.3947 2.3918 61.491 2.46333C61.5994 2.53481 61.6539 2.63654 61.6545 2.76854C61.6754 4.59246 61.5468 6.53711 61.2688 8.60248C62.9645 6.87823 64.8518 5.08105 66.9307 3.21094Z" fill="white"/>
<path d="M51.5092 2.56045C51.5102 2.35929 51.6386 2.14407 51.8946 1.91478C52.147 1.67402 52.4051 1.5131 52.6689 1.43203C52.818 1.38621 52.9358 1.3814 53.0223 1.4176C53.1202 1.45028 53.1678 1.52353 53.1651 1.63734L53.2405 5.43681C53.243 5.64943 53.1181 5.87613 52.8657 6.11689C52.6248 6.35413 52.3724 6.51328 52.1085 6.59435C51.9594 6.64018 51.8359 6.64675 51.738 6.61407C51.648 6.56639 51.5951 6.47594 51.5793 6.34271C51.5362 5.91657 51.4653 5.54291 51.3666 5.22173C51.1657 4.5679 50.9073 4.25813 50.5915 4.29242C50.4547 4.29678 50.3254 4.46833 50.2035 4.80708C50.0896 5.13082 49.9664 5.52647 49.8339 5.99402C49.3498 7.52367 49.1278 9.21135 49.1677 11.057C49.1868 11.6914 49.221 12.2521 49.2703 12.7391C49.3195 13.2261 49.4128 13.6933 49.5503 14.1407C49.6913 14.5995 49.8738 14.9891 50.0977 15.3094C50.3252 15.6412 50.615 15.91 50.9669 16.1157C51.3153 16.3099 51.6616 16.3542 52.0057 16.2484C52.3384 16.1462 52.6243 15.9328 52.8635 15.6082C53.1027 15.2836 53.3362 14.8792 53.564 14.3949L53.4079 14.2546C53.3559 14.2078 53.3228 14.1615 53.3087 14.1156C53.2558 13.9435 53.3441 13.7407 53.5736 13.5069C53.7996 13.2618 54.0502 13.0969 54.3255 13.0123C54.5893 12.9312 54.8033 12.9533 54.9673 13.0787L55.2967 13.3541C55.3152 13.3735 55.3316 13.4061 55.3457 13.452C55.3633 13.5094 55.3655 13.5777 55.3522 13.6571C55.3354 13.7251 55.3169 13.7873 55.2965 13.8437C54.9689 14.6976 54.4926 15.4968 53.8677 16.2412C53.2543 16.982 52.569 17.4688 51.812 17.7014C51.227 17.8812 50.635 17.8748 50.036 17.6822C49.0003 17.3351 48.2799 16.502 47.8745 15.1829C47.6242 14.3685 47.483 13.2757 47.4509 11.9047C47.4074 10.374 47.5279 8.88697 47.8125 7.4437C48.0936 5.98896 48.615 4.80561 49.3768 3.89363C49.8066 3.37238 50.2739 3.03421 50.7786 2.87912C51.008 2.80862 51.2533 2.78974 51.5144 2.82248L51.5092 2.56045Z" fill="white"/>
<path d="M38.7931 5.5703C38.7062 5.3722 38.7559 5.13848 38.9423 4.86915C39.134 4.58369 39.3583 4.37587 39.6152 4.24569C39.947 4.07754 40.1699 4.11927 40.284 4.37089C41.7564 7.72786 42.8974 10.829 43.7069 13.6743C43.8548 14.2317 43.9593 14.69 44.0202 15.0492C44.0758 15.3977 44.0724 15.7627 44.01 16.1441C43.9477 16.5254 43.794 16.8992 43.5491 17.2655C43.1445 17.8741 42.6268 18.3921 41.9958 18.8194C41.3594 19.2361 40.5675 19.6777 39.6201 20.1443L39.1866 20.364C38.5551 20.684 38.0328 20.8613 37.6197 20.8957C37.2067 20.9301 36.8781 20.7065 36.634 20.2248C36.5798 20.1177 36.5418 20.0294 36.5199 19.9598C36.2745 19.2366 36.0033 18.1969 35.7062 16.8407L35.5002 15.9564C35.088 14.1607 34.7498 12.6304 34.4854 11.3653C34.2317 10.0947 34.0209 8.82935 33.8532 7.5691C33.8253 7.38141 33.902 7.17439 34.0833 6.94801C34.2591 6.71093 34.4594 6.53544 34.6842 6.42153C34.834 6.3456 34.9734 6.31533 35.1023 6.33074C35.2258 6.33544 35.3173 6.39666 35.377 6.51441C35.3933 6.54652 35.4124 6.61082 35.4344 6.7073C35.6955 8.36419 36.1369 10.6158 36.7587 13.4621C37.1106 15.0327 37.4042 16.2493 37.6396 17.1121C37.7823 17.6856 37.9082 18.1598 38.0176 18.5349C38.0721 18.6956 38.1075 18.792 38.1238 18.8241C38.216 19.0061 38.3345 19.094 38.4794 19.0879C38.6243 19.0817 38.8546 19.0054 39.1705 18.8588L39.564 18.6795C39.9335 18.5327 40.3323 18.3507 40.7605 18.1338C41.8309 17.5913 42.4102 17.0355 42.4984 16.4661C42.5501 16.117 42.5104 15.7201 42.3792 15.2754C42.2588 14.8252 42.0815 14.3029 41.8476 13.7085L41.578 12.9774C40.7649 10.4702 39.8366 8.00114 38.7931 5.5703Z" fill="white"/>
<path d="M12.7007 22.3051C12.6618 22.2015 12.6487 22.0625 12.6612 21.8883C12.6779 21.7027 12.717 21.5254 12.7788 21.3563C12.8405 21.1872 12.9145 21.0546 13.0007 20.9583C13.087 20.8621 13.1752 20.8304 13.2654 20.8633C13.3443 20.8921 13.4195 20.9835 13.4911 21.1373L17.5348 30.1635L17.6406 30.4512C17.4021 28.5501 17.4433 27.16 17.7643 26.2807C18.0565 25.4804 18.5814 25.11 19.339 25.1694C19.6188 25.2077 19.8602 25.2638 20.0631 25.3379C20.3561 25.4449 20.6425 25.5878 20.9222 25.7665C21.1906 25.9412 21.4994 26.1625 21.8486 26.4305C22.3024 26.7623 22.6486 27.0036 22.8873 27.1547C23.1147 27.3016 23.375 27.4285 23.668 27.5355C23.7695 27.5725 23.9145 27.6127 24.1031 27.656C24.1761 27.491 24.2593 27.3681 24.3527 27.2873C24.4502 27.1951 24.5441 27.1655 24.6342 27.1984C24.7582 27.2437 24.8713 27.4063 24.9735 27.6864L25.1742 28.2387C25.2202 28.3577 25.2456 28.533 25.2504 28.7647C25.2553 28.9964 25.2248 29.2025 25.1589 29.3828C25.0643 29.6421 24.9011 29.7741 24.6694 29.779C24.2859 29.7795 23.8857 29.7036 23.4686 29.5514C23.1417 29.432 22.8251 29.2845 22.5188 29.1088C22.2053 28.9177 21.8232 28.6696 21.3725 28.3645C20.8665 28.001 20.4209 27.7169 20.0357 27.5124C19.7437 27.3675 19.5808 27.2888 19.5469 27.2765C19.3553 27.2065 19.1944 27.1925 19.0641 27.2343C18.9267 27.2608 18.823 27.3699 18.753 27.5615C18.6707 27.7869 18.6452 28.0842 18.6765 28.4534C18.712 28.8112 18.7342 29.0301 18.7434 29.1101C18.7693 29.6689 18.8453 30.4056 18.9712 31.3203C20.2435 32.1042 21.4329 32.8705 22.5391 33.6193C22.7256 33.7385 22.8365 33.977 22.8719 34.3348C22.9074 34.6927 22.8757 35.0069 22.7769 35.2774C22.7193 35.4352 22.6459 35.5489 22.5566 35.6185C22.4601 35.6727 22.3561 35.6603 22.2444 35.5812C22.0693 35.4662 21.9499 35.3907 21.8864 35.3547C21.618 35.1801 21.1688 34.8883 20.5388 34.4795C19.8976 34.0665 19.327 33.7049 18.8271 33.3946C18.6782 33.5575 18.5305 33.6121 18.384 33.5586C18.2149 33.4969 18.0957 33.2809 18.0265 32.9107C15.2308 31.2258 12.6155 29.9388 10.1807 29.0499C9.9891 28.98 9.86582 28.7753 9.81089 28.4358C9.74881 28.081 9.76921 27.7627 9.87209 27.4809C9.92971 27.3231 10.0088 27.2115 10.1093 27.146C10.214 27.0692 10.3284 27.0535 10.4523 27.0987C12.1698 27.713 13.9486 28.5093 15.7887 29.4877C14.7611 27.2985 13.7318 24.9043 12.7007 22.3051Z" fill="white"/>
<path d="M12.3055 41.6851C12.3127 40.8366 12.3693 40.0623 12.4753 39.3623L8.30167 38.9121C8.76872 39.2742 9.52627 39.8016 10.5743 40.4943C11.4671 41.0908 12.0441 41.4877 12.3055 41.6851ZM19.4829 37.3289C19.6681 37.3084 19.8329 37.3819 19.9775 37.5494C20.1101 37.7152 20.2051 37.9298 20.2622 38.1934C20.3331 38.4468 20.3523 38.6803 20.32 38.8939C20.2678 39.238 20.1314 39.4176 19.9106 39.4327C18.1493 39.6028 16.0847 39.6117 13.7168 39.4593C13.5432 40.5253 13.4832 41.6025 13.5368 42.6908C15.2306 44.0883 16.7878 45.3861 18.2083 46.5844C18.3601 46.7045 18.4728 46.9218 18.5465 47.2364C18.6065 47.561 18.6168 47.8539 18.5773 48.1149C18.5269 48.4471 18.4128 48.5997 18.2348 48.5728C18.1636 48.562 18.0901 48.5266 18.0142 48.4665C16.497 47.2658 15.1113 46.1577 13.8572 45.1424L13.9182 45.4612C13.9606 45.6618 13.9701 45.8392 13.9468 45.9935C13.9234 46.1477 13.8698 46.261 13.7861 46.3332C13.7005 46.4174 13.6043 46.4513 13.4975 46.4352C13.3789 46.4172 13.2692 46.3399 13.1686 46.2033C13.0542 46.0767 12.9658 45.8995 12.9032 45.6715C12.7385 45.0762 12.6182 44.5482 12.5424 44.0876C11.536 43.2798 10.3876 42.408 9.09723 41.4721C7.62131 40.399 6.47562 39.5094 5.66018 38.8033C5.61811 38.7605 5.57784 38.7058 5.53937 38.6393L5.44769 38.6436C5.23413 38.6113 5.06676 38.4342 4.94558 38.1125C4.81434 37.777 4.77209 37.4551 4.81881 37.1466C4.87633 36.7669 5.04836 36.5927 5.33491 36.624L6.53539 36.7512C9.41095 37.0776 11.8401 37.306 13.823 37.4364C15.7957 37.5532 17.6824 37.5173 19.4829 37.3289Z" fill="white"/>
<path d="M32.4103 19.8498C32.5023 19.82 32.5794 19.8334 32.6415 19.8899C32.7658 20.003 32.7895 20.2355 32.7126 20.5874C32.6268 20.9312 32.487 21.2096 32.2932 21.4226C32.1801 21.5468 32.0771 21.6154 31.9843 21.6283C31.9084 21.6403 31.6981 21.6842 31.3534 21.7599C31.0079 21.8186 30.6849 21.906 30.3846 22.022C30.0842 22.1381 29.8614 22.276 29.716 22.4358C29.5867 22.5778 29.5027 22.7771 29.4638 23.0338C29.4241 23.2735 29.4017 23.5209 29.3967 23.7759C29.3829 24.0229 29.3743 24.2017 29.371 24.3123C29.3548 24.5085 29.2969 24.7235 29.1975 24.9576C29.1061 25.1827 28.9959 25.3663 28.8666 25.5083C28.7535 25.6326 28.6425 25.71 28.5335 25.7406C28.4326 25.7623 28.3454 25.7155 28.2721 25.6L27.0139 23.7734C24.4257 20.0385 22.2497 16.8492 20.4859 14.2054C20.3673 14.0326 20.3558 13.7868 20.4512 13.468C20.5458 13.1322 20.6901 12.8579 20.8839 12.6449C20.9889 12.5295 21.0919 12.4609 21.1928 12.4392C21.2937 12.4175 21.3764 12.4603 21.4409 12.5677C22.3257 13.8597 23.6609 15.7889 25.4466 18.3553L28.4408 22.6869C28.5646 22.2478 28.7339 21.8746 28.9488 21.5672C29.0603 21.409 29.1443 21.2989 29.2009 21.2368C29.5563 20.8463 29.9887 20.5584 30.4981 20.373C31.0068 20.1707 31.6442 19.9963 32.4103 19.8498Z" fill="white"/>
<path d="M41.2089 38.1504L41.7162 37.9687L46.013 29.9127C46.82 28.3987 48.0234 27.1326 49.4944 26.2498C50.9654 25.3669 52.6487 24.9005 54.3643 24.9004H65.1839C67.1707 24.9003 69.1072 25.5255 70.7189 26.6874C72.3306 27.8493 73.5357 29.4889 74.1636 31.374L76.2116 37.5182C77.9275 38.2414 79.3919 39.4547 80.4215 41.0062C81.4511 42.5577 82.0002 44.3784 82 46.2405V50.454C82 53.1418 80.3986 55.4511 78.1007 56.4922C77.8031 58.1972 76.9304 59.7488 75.6278 60.8885C74.3253 62.0282 72.6716 62.6873 70.9422 62.7559C69.2128 62.8245 67.512 62.2985 66.1233 61.2655C64.7346 60.2326 63.7416 58.755 63.3099 57.079H47.6901C47.2584 58.755 46.2654 60.2326 44.8767 61.2655C43.488 62.2985 41.7872 62.8245 40.0578 62.7559C38.3284 62.6873 36.6747 62.0282 35.3722 60.8885C34.0696 59.7488 33.1969 58.1972 32.8993 56.4922C31.7372 55.9676 30.7512 55.1189 30.0596 54.0478C29.3679 52.9768 29 51.7289 29 50.454V49.1706C29.0003 47.2169 29.6052 45.3111 30.7317 43.7149C31.8582 42.1186 33.4512 40.9101 35.2919 40.2552L41.0083 38.2223V38.1504H41.2089ZM70.5747 32.5702C70.1978 31.4387 69.4743 30.4546 68.5067 29.7574C67.539 29.0602 66.3765 28.6854 65.1839 28.6861H61.1786V38.1504H72.4335L70.5747 32.5702ZM45.9108 38.1504H57.3929V28.6861H54.3643C53.3348 28.6857 52.3246 28.9652 51.4417 29.4947C50.5589 30.0242 49.8365 30.7837 49.352 31.692L45.907 38.1504H45.9108ZM74.4286 55.1861C74.4286 54.1821 74.0297 53.2192 73.3198 52.5092C72.6098 51.7992 71.6469 51.4004 70.6429 51.4004C69.6388 51.4004 68.6759 51.7992 67.966 52.5092C67.256 53.2192 66.8571 54.1821 66.8571 55.1861C66.8571 56.1901 67.256 57.153 67.966 57.863C68.6759 58.573 69.6388 58.9718 70.6429 58.9718C71.6469 58.9718 72.6098 58.573 73.3198 57.863C74.0297 57.153 74.4286 56.1901 74.4286 55.1861ZM40.3571 51.4004C39.3531 51.4004 38.3902 51.7992 37.6802 52.5092C36.9703 53.2192 36.5714 54.1821 36.5714 55.1861C36.5714 56.1901 36.9703 57.153 37.6802 57.863C38.3902 58.573 39.3531 58.9718 40.3571 58.9718C41.3612 58.9718 42.3241 58.573 43.034 57.863C43.744 57.153 44.1429 56.1901 44.1429 55.1861C44.1429 54.1821 43.744 53.2192 43.034 52.5092C42.3241 51.7992 41.3612 51.4004 40.3571 51.4004Z" fill="white"/>
<line x1="63.5015" y1="26.6425" x2="86.732" y2="22.4245" stroke="white" stroke-width="3"/>
</g>
<defs>
<filter id="filter0_d" x="-2" y="0" width="101.915" height="71.4207" filterUnits="userSpaceOnUse" color-interpolation-filters="sRGB">
<feFlood flood-opacity="0" result="BackgroundImageFix"/>
<feColorMatrix in="SourceAlpha" type="matrix" values="0 0 0 0 0 0 0 0 0 0 0 0 0 0 0 0 0 0 127 0" result="hardAlpha"/>
<feOffset dy="4"/>
<feGaussianBlur stdDeviation="2"/>
<feComposite in2="hardAlpha" operator="out"/>
<feColorMatrix type="matrix" values="0 0 0 0 0 0 0 0 0 0 0 0 0 0 0 0 0 0 0.25 0"/>
<feBlend mode="normal" in2="BackgroundImageFix" result="effect1_dropShadow"/>
<feBlend mode="normal" in="SourceGraphic" in2="effect1_dropShadow" result="shape"/>
</filter>
</defs>
</svg>
